<svg width="200" height="65" viewBox="0 0 200 65" fill="none" xmlns="http://www.w3.org/2000/svg">
<g clip-path="url(#clip0_1_147)">
<path d="M19.9309 31.8521C24.4353 26.4707 23.7045 18.4713 18.2966 13.989L16.3389 12.3671L13.0747 16.2632L15.0324 17.8852C18.27 20.5737 18.7129 25.3777 16.0112 28.6039L14.3813 30.552L18.2966 33.8002L19.9265 31.8521H19.9309Z" fill="white"/>
<path d="M6.86962 7.81889C9.56694 4.59269 14.4035 4.15636 17.6412 6.84486L27.4339 14.9632L30.6981 11.0671L20.9054 2.94433C15.4975 -1.54238 7.45869 -0.815166 2.95431 4.57065C-1.53236 9.92561 -0.828138 17.8721 4.51334 22.372L4.57535 22.4249L4.58864 22.4382L10.466 27.3083L13.7303 23.4122L7.84402 18.5332C4.61078 15.8447 4.17673 11.0451 6.87405 7.82329L6.86962 7.81889Z" fill="white"/>
<path d="M32.0092 45.1712C26.6013 40.6889 18.5625 41.4161 14.0581 46.7976L12.4282 48.7456L16.3435 51.9939L17.9734 50.0458C20.6752 46.824 25.5029 46.3833 28.745 49.0718L30.7027 50.6937L33.9669 46.7976L32.0092 45.1756V45.1712Z" fill="white"/>
<path d="M7.85766 58.1641C4.61556 55.4801 4.17708 50.6672 6.87883 47.4454L15.0372 37.7007L11.1219 34.4525L2.95908 44.1972C-1.5453 49.5786 -0.814502 57.578 4.59342 62.0603C9.97919 66.5249 17.9648 65.8198 22.4825 60.5089L22.5312 60.4516L22.5445 60.4384L27.4431 54.5898L23.5278 51.3415L18.6248 57.1989C15.923 60.4163 11.0998 60.8482 7.86209 58.1641H7.85766Z" fill="white"/>
<path d="M45.3941 33.1479C40.8898 38.5293 41.6206 46.5287 47.0285 51.011L48.9861 52.6329L52.2504 48.7368L50.2927 47.1149C47.0551 44.4264 46.6121 39.6223 49.3139 36.3961L50.9438 34.4481L47.0285 31.1998L45.3986 33.1479H45.3941Z" fill="white"/>
<path d="M58.4511 57.1857C55.7537 60.4119 50.9172 60.8483 47.6795 58.1598L37.8868 50.0414L34.6226 53.9375L44.4153 62.0559C49.8232 66.5382 57.862 65.811 62.3664 60.4296C66.853 55.0702 66.1444 47.1237 60.8073 42.6282L60.7453 42.5753L60.732 42.562L54.8546 37.6919L51.5904 41.588L57.4767 46.467C60.7099 49.1555 61.144 53.9551 58.4466 57.1769L58.4511 57.1857Z" fill="white"/>
<path d="M33.3112 19.8332C38.7191 24.3155 46.7579 23.5883 51.2623 18.2069L52.8922 16.2588L48.9769 13.0106L47.347 14.9586C44.6452 18.1804 39.8175 18.6212 36.5754 15.9327L34.6178 14.3107L31.3535 18.2069L33.3112 19.8288V19.8332Z" fill="white"/>
<path d="M57.4678 6.83584C60.7099 9.51993 61.1484 14.3328 58.4466 17.5546L50.2882 27.2993L54.2036 30.5475L62.3619 20.8028C66.8663 15.4214 66.1355 7.42202 60.7276 2.93972C55.3418 -1.52495 47.3562 -0.819774 42.8385 4.49112L42.7898 4.54841L42.7765 4.56163L37.8779 10.4102L41.7932 13.6585L46.6963 7.80106C49.398 4.58367 54.2213 4.15175 57.4589 6.83584H57.4678Z" fill="white"/>
<path d="M155.094 12.1644H146.926V28.4144H135.167C132.647 28.4144 130.596 26.3738 130.596 23.866V12.1644H122.429V23.866C122.429 30.8561 128.143 36.5416 135.167 36.5416H146.926V52.7916H155.094V36.5416H159.177V28.4144H155.094V12.1644Z" fill="white"/>
<path d="M175.994 20.2916H200V12.1644H175.994C168.97 12.1644 163.256 17.8499 163.256 24.84V52.7916H171.424V36.5416H183.67V28.4144H171.424V24.84C171.424 22.3322 173.474 20.2916 175.994 20.2916Z" fill="white"/>
<path d="M122.429 48.728C122.429 37.5112 113.292 28.4144 102.015 28.4144H97.9316V36.5416H102.015C108.77 36.5416 114.262 42.0111 114.262 48.728V52.7916H122.429V48.728Z" fill="white"/>
<path d="M81.6062 32.478C81.6062 25.7567 87.1027 20.2916 93.8526 20.2916H114.266V12.1644H93.8526C82.5806 12.1644 73.439 21.2568 73.439 32.478C73.439 43.6992 82.492 52.7034 93.6976 52.7872H93.8216C93.8216 52.7872 93.8438 52.7872 93.8526 52.7872H106.099V44.6644H93.8305C87.085 44.6511 81.6018 39.1904 81.6018 32.478H81.6062Z" fill="white"/>
</g>
<defs>
<clipPath id="clip0_1_147">
<rect width="200" height="65" fill="white"/>
</clipPath>
</defs>
</svg>
